<?xml version="1.0" encoding="UTF-8"?>
<svg id="Layer_2" data-name="Layer 2" xmlns="http://www.w3.org/2000/svg" viewBox="0 0 1436.96 1466.28">
  <defs>
    <style>
      .cls-1 {
        fill: #64a5b1;
      }

      .cls-1, .cls-2, .cls-3, .cls-4, .cls-5, .cls-6, .cls-7, .cls-8, .cls-9, .cls-10, .cls-11, .cls-12, .cls-13, .cls-14, .cls-15, .cls-16, .cls-17, .cls-18, .cls-19, .cls-20 {
        stroke-width: 0px;
      }

      .cls-2 {
        fill: #d43331;
      }

      .cls-3 {
        fill: #090a09;
      }

      .cls-4 {
        fill: #f8f8f7;
      }

      .cls-5 {
        fill: #afd281;
      }

      .cls-6 {
        fill: #86ba60;
      }

      .cls-7 {
        fill: #6dabb6;
      }

      .cls-8 {
        fill: #81ceda;
      }

      .cls-9 {
        fill: #e9c697;
      }

      .cls-10 {
        fill: #eac354;
      }

      .cls-11 {
        fill: #111313;
      }

      .cls-12 {
        fill: #986741;
      }

      .cls-13 {
        fill: #505150;
      }

      .cls-14 {
        fill: #87d2e0;
      }

      .cls-15 {
        fill: #f9faf9;
      }

      .cls-16 {
        fill: #cf9e6b;
      }

      .cls-17 {
        fill: #80d0dd;
      }

      .cls-18 {
        fill: #bec0be;
      }

      .cls-19 {
        fill: #5b8752;
      }

      .cls-20 {
        fill: #f6f7f6;
      }
    </style>
  </defs>
  <g id="Layer_1-2" data-name="Layer 1">
    <g>
      <path class="cls-3" d="M1433.41,1222.38c21.59,8.65-61.94,82.77-69.86,94.78-31.44,17.38-56.51,43.44-90.84,57.21-39.21,15.73-69.85,7.22-109.97.38,6.33,78.98-85.41,47.2-125.96,29.8-9.98,42.92-30.54,37.85-73.81,51.31-20.06,6.02-32.27,6.02-52.81,2.12-56.54-14.97-22.35-34.95-22.35-80.73-101.48-4.98-210.92-44.51-312.49-32.09-52.73,6.45-105.75,56.98-160.93,49.19-31.29-4.42-35.77-29.11-60.76-40.22.18-3.44.36-6.67.53-9.89l1.68-4.28c-.45-.21-.91-.42-1.36-.63-.71,1.1-1.42,2.21-2.13,3.31-31.82,26.73-47.27,40.59-89.62,35.34-43.22-5.36-86.84-18.92-129.25-29-52.64-15.66-128.85-21.39-133.48-90.62,20.84-.99,36.31,17.52,57.4,13.67,26.21-4.79,50.59-44.73,63.11-64.51,39.16-61.84,53.57-131.61,67.38-202.17,55.75,9.56,110.65,30.21,165.28,44.9,3.32-22.27,6.49-43.61,9.79-65.78-119.69-83.09-23.37-202.46,44.84-283.7-38.27-57.2-65.19-106.73-71.95-176.14-98.11-13.39-123.25-64.28-126.97-156.22-.69-17.09,2.16-36.97-1.28-53.77-3.49-17.02-13.78-26.57-17.54-40.8-13.47-51.08,6.48-51.91,51.43-62.24-67.71-64.41,31.62-90.84,85.67-104.08,82.28-20.16,165.75-29.21,249.89-36.91C633.14-10.48,718.13,1.81,807.05,16.14c96.94,15.62,185.14,48.17,273.48,90.07,19.9-23.66,39.24-55.04,64.42-73.03,10.11-7.22,68.04-36.57,81.39-32.86,50.11,13.92-56.98,146.25-71.7,164.94,2.32,9.63,4.35,18.08,6.58,27.34,117.82,0,163.76,151.64,55.52,208.04,21.48,14.36,91.24,68.24,48.14,100.73-42.27,31.86-37.14-53.8-60.59-56.04,3.76,62.71,5.83,125.06,4.87,187.88-.96,62.67-7.3,133.47,12.94,193.32,18.83,55.7,48.85,106.51,20.6,165.14-14.08,29.22-29.75,41.96-34.5,75.73-5.38,38.3-8.05,75.17-19.68,112.44,10.28,1.76,12.61-15.74,23.41-16.88,15.25-1.61,45.2,20.1,60.3,25.74,49.76,18.56,99.97,26.51,152.36,33.28,2.77,3.69,5.72,3.59,8.82.41ZM706.92,290.08c-8.75,5.75-10,14.95-11.12,24.21-12.86,50.31-11.71,140.21,27.07,180.48,40.51,42.06,123.07,39.97,176.79,35.21,78.5-6.95,101.64-39.55,112.2-113.91,7.46-52.54,19.38-133.99-53.2-141.56-.55-.17-1.11-.33-1.66-.49.53.19,1.06.39,1.58.58,10.1,48.37,29.03,81.61,4.65,131.44-20.28,41.46-61.51,72.72-107.26,78.97-104.46,14.27-168.64-75.17-156.57-170.65,2.46-8.15,4.91-16.3,7.37-24.45.36-.53.71-1.05,1.07-1.58-.31.58-.61,1.16-.92,1.74ZM862.73,849.57l.09.24c-.83,19.21,31.35,18.83,27.02-1.07,5.93-35.67-22.19-52.43-26.71-18.38-4.53,1.03-4.27,4.81-3.74,7.85.68,3.85-2.8,9.12,3.35,11.36ZM898.93,1202.23c10.58-45.89-25.69-36.46-27.38,2.84,4.96,22.23,34.74,19.28,27.38-2.84ZM793.59,928.19c4.87,24.02,35.28,21.81,28.19.16,10.36-52.73-33.86-33.53-28.19-.16ZM828.54,1016.79c.07-3.71.14-7.42.21-11.14.59-.76,1.18-1.53,1.77-2.29,11.66-35.8-35.84-20.76-29.99,13.11,4.83,18.31,29.95,24.71,28.01.32ZM867.28,1020.9c12.07-53.11-32.16-36.04-27.1-2.2,1.77,24.59,34.15,24.33,27.1,2.2ZM901.65,850.91c3.02,21.19,31.22,23.35,27.18-.15,1.53-8.55,3.06-17.1,4.71-26.36-17.15-29.79-34.67,10.44-31.89,26.51ZM782.01,926.17c11.17-56.64-34.99-32.02-27.71-2.49,3.32,19.47,29.99,26.61,27.71,2.49ZM850.56,842.18c.61-10.01,10.94-30.74-2.81-35.9-18.94-7.11-27.09,19.63-25.03,33.46,5.05,22.28,34.01,26.69,27.84,2.43ZM781.49,1188.85c9.47-47.82-21.86-44.5-27.71-4.43,2.86,19.8,29.47,29.36,27.71,4.43ZM907.43,1027.62c9.03-53.69-32.32-36.6-27.93-2.19,1.06,22.03,30.19,26.28,27.93,2.19ZM704.03,1173.36c12.71-55.24-34.22-31.13-27.91,2.33,5.87,21.2,31.43,21.44,27.91-2.33ZM940.34,852.94c-5.21,22.58,33.14,27.55,28.66,2.33,8.53-54.79-34.35-34.7-28.66-2.33ZM711.24,1005.68c-2.95,19.65,34.2,20.25,28.51-2.3,10.36-54.68-35.14-33.22-28.51,2.3ZM832.17,1195.31c1.25,23.93,32.48,26.86,27.85,2.2,1.88-8.54,3.75-17.07,5.63-25.61-15.92-24.14-37.29,4.18-33.48,23.41ZM922.07,943.5c1.47-9.3,2.94-18.59,4.62-29.17-12.5-30.01-35.01,14.01-32.26,29.47,5.29,18.66,31.59,23.4,27.64-.3ZM742.46,1182.34c1.6-8.9,3.19-17.81,5.07-28.27-13.65-30.2-34.76,10.52-32.48,25.78-4.64,20.95,32.87,24.81,27.41,2.49ZM793.09,1191.18c3.25,20.18,30.68,25.74,27.7,1.99,11.71-56.86-33.78-35.5-27.7-1.99ZM699.76,998.89c10.93-55.84-35.01-34.93-27.29,3.31,4.75,18.54,30.59,18.26,27.29-3.31ZM919.16,1034.29c-3.45,23.29,36.7,14.2,28.43.09,10.22-61.87-38.63-32.98-28.43-.09ZM938.36,959.58c6.65,6.47,11.5,7.51,17.89,3.83,6.19-3.57,7.68-8.75,4.99-17.43,16.68-61.68-48.46-22.34-22.88,13.6ZM770.3,1100.72c.08.7.17,1.4.25,2.1,25.55,58.98,53.66-73.23,4.86-30.7-3.21-3.21-5.56-7.89-11.37-6.71-24.29-22.15-46.23,22.83-30.86,38.97,16.85,17.7,26.16.95,26.87-16.99,3.52-1.47,7.04-2.94,10.55-4.4-.01.75-.02,1.49-.04,2.24-2.29,1.3-2.47,2.72-.25,4.28l-.03,11.21ZM1058.07,1264.1c-7.43,18.29-8.36,42.76-9.43,62.45,12.79-7.55,24.78-12.81,33.9-22.52,73.18-41.12,102.01-142.89,107.3-220.88.8-10.12,1.59-20.25,2.57-32.64-34.51,23.43-71.21,36.29-110.34,43.85-4.88,35.58-9.65,70.42-14.43,105.25-3.19,21.49-6.38,42.99-9.57,64.48ZM500.86,1341.04c-12.75,19.72-77.17,22.94-97.81,25.7-1.41,2.9-3.26,6.7-5.79,11.92,45.02,7.17,83.11-12.46,124.26-28.18,11.27-2.39,21.6-7.12,32.93-12.22-16.9-5.72-32.37-10.96-48.84-16.54-1.65,6.71-3.2,13.01-4.75,19.32ZM1109.6,1316.8c16.96,8.92,31.68,20.66,42.51,36.51,3.76,5.5,8.12,8.88,14.11,10.79.54,1.16,1.08,2.32,1.62,3.48.97-.71,1.94-1.41,2.9-2.12,8.53,1.5,17.07,3.01,26.97,4.76-14.34-21.39-12.32-43.97-9.85-65.76-20.76-4.64-40.92-9.14-62.1-13.88-4.19,3.96-20.25,15.6-21.83,22.26-2.46,1.83-1.77,3.41.69,4.11,1.52.44,3.31-.07,4.98-.15ZM654.74,400.73c-.14-6.45-.29-12.9-.41-18.09-16.15-12.79-104.88-44.66-99.58,6.84-2.3,8.28-4.6,16.57-6.89,24.81,33.41,9.67,75.76,17.53,111.37,24.6-1.45-12.32-2.97-25.24-4.49-38.17ZM1108.97,1331.68c-5.76-4.28-11.51-8.56-16.28-12.1-16.83,9.96-32.2,19.04-48.79,28.85-1.24,10.84-2.6,22.78-3.97,34.71-.52,2.32-1.04,4.63-1.68,7.47,22.78,10.24,65.4,36.95,91.24,21.89-5.16-16.89-19.77-24.93-32.08-35.3,1.64-2.87,2.84-4.97,4.49-7.85,18.55,6.44,28.99,20.86,39.15,36.58,23.5-29.12-7.28-60.27-32.1-74.26ZM505.03,428.3c-47.43,17.44-77.14,12.19-121.67-8.67-15.18,22.99-25.27,46.93-26.19,73.89,45.34,30.76,140.07-11.86,149.21-63.88.3-.72.6-1.44.89-2.16-.75.28-1.5.55-2.24.83ZM441.52,1049.92c4.48-10.3,7.59-20.97,9.55-31.21-24.93-8.52-48.67-16.64-72.91-24.93-1.46,10.2-3.01,21.02-4.56,31.84-6.79,59.3-6.36,122.59,22.95,176.58,21.22-47.28,31.44-102.28,44.97-152.27ZM1027.14,252.4c50.39,16.53,62.4,11.88,59.77,64.09,28.87,18.85,58.18,37.98,88.92,58.05-6.34-49.3-42.94-146.32-95.55-162.74-4.55-2.85-9.11-5.7-13.29-8.32-25.69,15.82-51.69,28.45-81.76,38.14,15.89,4.09,28.9,7.44,41.91,10.79ZM510.41,210.3c49.81,23.2,56.38,67.67,52.93,116.54,33.15-2.05,58.6-.14,91.07,6.89,3.71-28.26.17-59.29,23.88-78.85,18.81-10.22,39.42-15.76,59.81-22.36-29.94-25.57-106.41-33.92-144.5-45.05-46.41-13.56-86.39-35.58-120.54,9.53,12.8,4.56,25.08,8.93,37.36,13.31ZM905.65,970.73c-15.1-3-20.23-14.16-21.52-27.79-5.98-.97-10.97-1.79-15.97-2.6-.86-3.4-2.21-4.41-4.49-.92-8.84-.89-17.68-1.79-26.52-2.68-.72.02-1.44.04-2.16.06-13.03,20.08-28.41,26.36-47.98,8.9-22.78,16.44-37.28.66-43.78-20.97-46.31-4.34-91.7-12.7-137.87-16.44-3.99,17.68-7.75,34.3-11.69,51.72,24.96,3.19,48.53,6.21,71.59,9.16,19.06-22.8,33.45-20.44,47.65-5.47,18.64-13.66,37.08-2.32,43.57,17.25,13.24,1.8,25.91,3.52,38.81,5.28,11.65-18.19,31.98-20.97,46.23-4.05,14.65-14.14,27.1-3.92,41.48,3.9,5.83-5.22,13.97-6.28,22.65-4.95,5.25,3.85,10.51,7.69,16.05,11.76,19.77-16.66,33.28.09,43.38,16.07,3.44-18.09,6.5-34.15,9.55-50.21-13.12,15.92-30.7,21.68-46.6,6.12-8.61,2.26-15.5,4.06-22.39,5.87ZM706.91,1021c-.79-1.29-1.57-2.58-2.36-3.87-.72,1-1.43,2-2.15,3.01-18.76,16.9-37.62-3.3-41.45-21.94-24.96-3.85-49.47-7.62-74.55-11.49-4.43,19.89-8.55,38.36-12.8,57.43,37.76,5.22,115.76,32.2,152.15,19.84,11.77-18.54,33.21-20.14,47.22-3.04,13.77-14.23,27.35-3.53,41.19,3.62,14.98-10.99,24.97-2.29,39.97,6.14,14.31-11,27.17-6.23,38.29,6.33,20.97-12.63,32.2-8.17,42.95,16.75,3.32.18,6.9.37,11.06.6,3.44-15.45,6.76-30.36,10.57-47.48-15.11,15.86-29.54,14.6-45.48,1.47-15.38,11.41-28.46,7.49-39.65-6.66-15.46,11.84-24.47,4.7-40.67-3.9-20.45,12.77-34.61,5.57-41.84-22.95-12.39-1.4-25-2.83-37.23-4.21-13.52,23.82-31.33,27.62-45.23,10.36ZM1051.39,111.19c-76.38-36.59-154.41-63.48-238.14-77.7-65.92-11.19-174.55-34.55-215.41,35.45,160.89,6.1,301.96,38.87,449.08,104.32,22.62,12.49,45.23,24.98,67.39,37.22,10.17-4.56,19.73-8.85,29.7-13.32-2.94-45.99-56.02-68.51-92.63-85.97ZM1254.57,1332.66c3.62,1.35,7.25,2.71,11.7,4.37-1.77,3.19-2.91,5.22-4.23,7.6-21.41-7.92-42.27-15.63-63.7-23.56-11.97,74.84,63.77,48.24,101.52,26.83,45.53-25.83,96.26-68.47,121.93-114.57-74.68-5.43-144.3-25.44-209.12-57.34-31.18,32.41-53.14,65.58-75.79,104.54,20.92,8.16,42.36,9.5,64.34,12.5-.83,6.82-1.48,12.12-2.14,17.54,17.72,7.05,34.39,13.69,51.06,20.32.49,3.04,1.09,5.78,4.42,1.78ZM458.26,138.62c106.27,23.21,208.78,59.3,314.42,84.59,80.4,19.25,211.18,35.36,278.61-29.7-125.08-59.41-251.92-98.66-390.94-106.15-52.13-5.34-109.59.68-161.56,6.62-52.15,5.96-134.55,6.11-180.28,33.94,46.95,3.27,92.65,4.9,139.75,10.69ZM486.14,528.5c-1.69-3.89-3.39-7.78-5.33-12.25-40.85,15.67-84.97,12-127.75,11.66.76,5.59,1.48,10.87,2.2,16.15,4.16,56.36,36.39,97.53,64.43,143.95,13.15,21.77,24.11,74.41-.93,29.47-44.95,25.66-95,108.76-97.57,160.51-3.65,73.6,61.22,100.18,119.29,121.87-3.88-35.62,3.68-69.43,33.04-92.51-5.49-5.32-80.97-77.07-53.79-86.79,3.85-1.38,56.58,68.9,68.12,75.87,12.2-28.58,18.65-60.68,27.48-90.42,5.95-20.06,10.95-68.43,25.21-83.26,25.19-26.19,84.7,7.57,101.72,33.53-2.88,12.94-5.73,25.76-8.91,40.02,61.31,6.06,121.86,12.05,182.52,18.05,11.48-18.2,31.35-27.97,47.21-7.83,16.23-10.33,24.12-9.33,39.94,4.67,15.43-10.94,23.93-4.45,40.3,3.74,16.77-15.12,35.8-.74,42.1,16.26,5.54.65,10.19,1.19,15.54,1.81,6.69-25.52,5.97-79.12,29.18-90.06,22.23-10.48,54.43,6.03,71.89,17.93,27.76,18.91,25.54,17.72,22.46,49.53-3.64,37.62-11.48,75.17-16.69,112.64.79.25,1.57.5,2.36.75,2.63-4.77,28.89-63.54,28.68-27.72-.21,36.28-47.4,72.24-74.9,88.91,30.72,22.87,35.27,55.8,31.85,91.3,51.78-14.59,106.88-39.56,131.03-91.07,25.92-55.28-3.23-103.54-21.25-155.84-38.88-112.85-6.91-253.08-17.82-371.34-.74-6.83-1.47-13.66-2.23-20.64-43.89-17.79-87.15-35.32-130.92-53.06-16.71,76.05-12.79,150.66-101.88,172.16-78.35,18.92-179.48,14.64-248.88-28.11-2.22,4.03-4.14,7.52-6.07,11.01-15.27,19.02-35.18,28.02-60.52,26.73-4.15,50.09-5.04,66.59-57.66,64.06-56.82-2.74-56.65-25.1-64.92-74.84-15.13-8.17-17.72-10.62-28.52-26.83ZM353.43,1063.45c-52.33-15.07-103.76-29.88-155.69-44.84-10.66,52.1-21.1,101.11-43.39,149.89-21.83,47.77-52.92,72.31-83.67,111.42,50.24,32.41,137.02,21.1,192.8,16.33-7.3,127,92.36,43.76,112.57-23.5,13.91-46.29,16.4-67.49-29.67-84.86-48.02-18.1-104-25.92-149.54-49.37.34-3.11,1.36-5.98,3.06-8.6,56.91,17.44,112.7,37.2,170.09,55.3-12.72-40.34-17.72-79.89-16.56-121.76ZM851.04,258.66c-73.4,4.23-149-.1-142.88,96.06,4.01,63.08,53.14,113.62,116.23,118.64,62.54,4.98,119.97-34.47,136.21-94.93,7.51-27.96,7.05-61.41-8.53-86.91-21.59-35.34-63.06-28.82-101.04-32.87ZM1001.09,1086.44c-53.64-49.94,14.63-77.61,26.27-126.14,15.94-66.46,27.75-135.89,37.97-203.44h-35.37c-47.01,227.14-93.95,453.93-140.81,680.32,10.55,7.33,31.81,9.1,43.49,11.79,23.61-120.82,45.55-241.54,68.45-362.53ZM348.64,262.97c-30.38-10.52-65.67-33.77-92.19-4.82-19.76,21.57-16.38,67.41-16.55,94.11-.52,80.35,14.89,125.34,98.9,140.09,4.32-30.7,14.28-58.36,31.9-83.35-39.2-44.27-43.98-93.22-22.05-146.02ZM525.77,315.83c0-53.32-83.18-92.04-133.17-78.72-44.47,11.85-50.47,83.87-38.8,120.02,15.16,46.97,61.54,77.35,110.88,70.61,61.07-8.35,59.97-59.02,61.09-111.91ZM1020.04,1424.26c16.37-109.42,32.66-218.25,49.08-327.95-19.39,0-37.4-1.19-56.59-3.89-22.22,118.23-44.37,236.06-66.67,354.7,25.07-7.73,49.34-15.21,74.18-22.86ZM511.08,1302.51c47.72,33.45,120.15,28.54,175.21,32.23,69.14,4.63,136.47,21.62,205.54,26.02,2.1-11.06,3.97-20.95,6.02-31.74-12.23.56-19.68-5.87-26.45-13.72-15.62,11.59-28.61,7.55-39.28-6.08-18.34,10.46-21.4,6.55-40.57-5.43-13.58,10.93-26.24,7.06-36.7-5.89-25.61,12.17-33.97,8.04-45.11-21.94-61.39-9.76-123.18-19.59-185.26-29.47-4.64,19.4-8.98,37.55-13.39,56.02ZM512.93,1021.65c-30.34,110-60.9,219.93-91.68,329.81,24.11-5.52,45.98-10.54,68.48-15.69,7.38-30.54,14.7-60.82,21.95-90.79-12.65-7.51-40.14,13.53-38.88-17.78,1.47-36.38,29.63-9.04,45.31-12.42,5.16-20.66,10.4-41.66,15.62-62.57-12.92-5.34-35.94,9.83-34.37-16.96,2.01-34.38,25.32-7.17,41.26-10.94,4.27-17.97,8.79-35.73,12-55.63-41.37,9.2-40.59-47.07,6.27-24.38,6.27-20.06,11.4-38.74,13.7-57.94-12.02-4.55-43.76,28.06-59.66,35.3ZM530.94,1217.95c62.47,9.65,123.58,19.1,185.22,28.63,13.52-19.18,30.96-20.99,47.56-4.07,14.35-13.67,25.47-3.92,40.21,4.92,14.08-10.95,26.58-4.95,37.82,6.12,17.97-10.66,22.41-5.56,41.69,5.25,8.59-6.71,19.05-6.1,30.04-.74,2.97-15.4,5.64-29.29,8.5-44.11h-11.86c-10.31,19.96-29.14,21.85-44.41,6.59-19.46,4.72-23.65,4.68-40.96-5.27-18.45,4.08-23.23,3.05-39.9-5.89-16.79,8.22-22.24,7.31-37.93-6.94-19.11,9.37-24.03,8.7-39.05-5.39-25.8,10.35-36.16.58-43.49-24.22-39.56-6.65-78.51-13.19-118.1-19.85-5.23,22.11-10.17,42.99-15.36,64.94ZM811.64,843.34c-62.33-6.33-123.94-12.58-185.88-18.87-4.63,19.55-8.98,37.91-13.35,56.32,45.84,5.29,90.64,10.46,134.83,15.56,18.86-25.19,34.25-20.56,48.36-6.3,17.36-17.04,37.3-.99,43.34,16.72,16.58,2.3,33.38,5.65,50.16,5.65,13.31-20,29.29-18.9,46.6-5.25,22.52-16.93,34.02,3.66,45.98,18.64,4.72-21.4,9.02-40.87,13.47-61.07-5.45-1.02-9.63-1.81-14.04-2.63-9.68,19.26-31.18,28.68-46.96,9.21-16.9,10.88-21.36,7.56-39.82-2.14-18.63,4.76-22.87,4.12-39.75-5.12-22.17,12.75-30.95,8.72-42.95-20.72ZM763.59,1115.23c-23.11,12.97-38.84,3.01-43.57-22-51.88-6.03-102.56-15.33-153.77-21.28-4.48,19.08-8.64,36.76-12.91,54.95,40.17,5.9,78.89,11.58,117.7,17.28,14.52-14.57,30.42-22.38,46.08-3.18,18.39-10.09,24.39-9.12,39.71,6.07,14.39-12.26,26.88-6.59,38.6,5.61,13.21-13.1,28.28-4.17,39.64,5.05,15.85-9.23,23.31-7.94,38.52,6.34,17.37-14.55,37.32-1.11,42.38,17.58,4.4.29,8.25.55,12.65.84,3.47-19.46,8.85-37.55,10.98-56.02-14.16-6.29-14.8,14.87-25.49,16.32-17.21,2.33-17.91-3.82-32.05-10-16.68,10.71-23.69,4.31-40.97-5.43-13.66,9.71-26.57,5.96-37.61-5.98-20.36,8.88-24.81,8.23-39.91-6.15ZM464.69,1019.39c-30.96,109.16-65.26,216.54-96.28,325.49,13.75,2.78,26.19,5.29,39.5,7.98,31.47-110.23,61.54-220.21,91.67-330.67-12.34-.99-23.21-1.86-34.89-2.8ZM486.01,161.36c-33.59-7.5-252.64-50.78-252.2,15.36.32,48.77,96.09,24.75,119.33,25.09,61.16.91,87.13,4.61,132.88-40.45ZM1194.97,388.2c155.4-54.76-1.83-246.21-71.13-162.14,7.72,10.9,15.08,21.29,22.19,31.33,59.32-9.21,94.6,53.19,37.58,87.82,3.58,13.57,7.21,27.29,11.35,42.98ZM1035.57,985.08c39.52-24.54,53.58-33.72,61.2-80.07,6.6-40.19,12.53-80.42,17.99-120.78-11.53-7.02-23.54-14.33-37.2-22.64-14.28,74.91-28.74,147.9-41.99,223.49ZM630.49,443.69c10.33,37.96-33.99,47.82-60.47,54.92,0,56.01,103,79.55,122.54,19.05-27.99-30.36-16.98-64.22-62.07-73.97ZM251.3,1308.76c-82.91,13.87-159.47-7.94-237.51-34.19,19.86,43.81,64.9,47.12,107.19,58.37,47.85,12.73,95.89,24.48,144.55,33.64-13.38-18.36-15.82-37.28-14.23-57.82ZM593.53,735.32c-18.53,66.11-36.78,131.24-55.26,197.16,13.99,12.64,21.39,26.54,42.25,24.15,3.84-16.27,7.72-32.69,12.02-50.91-29.57,11.64-36.84-42.7,6.42-25.42,4.51-18.95,8.81-37.03,13.44-56.5-32,8.68-34.84-42.73,6.6-27.38,3.28-13.38,6.2-25.25,9.16-37.31-12.04-7.99-21.56-17.66-34.63-23.79ZM453.55,1003.09c26.49,5.7,73.22,12.18,89.9-16.52-6.67-1.26-46.73-4.32-40.1-16.22,4.8-8.61,36.97,3.46,44.57,4.66,1.39-21.97-45.4-64.78-67.25-58.33-29.73,8.77-32.17,63.19-27.12,86.42ZM499.27,905.65c9.5,6.19,18.5,12.05,27.68,18.03,7.64-18.27,53.63-185.55,53.31-193.76-9.31-.66-18.66-1.32-28.23-2-17.6,59.28-35,117.9-52.76,177.72ZM1052.19,991.38c-4.68,2.76-80.01,37.75-59.19,57.48,3.15-.64,36.63-12.7,41.95-2.5,5.02,9.62-39.89,13.02-40.91,13.18,14.4,22.56,49.39,30.23,86.09,19.77,12.86-30.1,1.38-73.22-27.94-87.93ZM509.62,459.25c-43.48,34.82-3.27,111.05,49.26,66.19-1.16-10.49-2.21-19.92-3.25-29.28-19.67-6.81-36.51-16.66-46.01-36.92ZM576.29,543.72c1.19,25.12,2.33,49.17,3.53,74.47,42.61,0,37.97-10.31,45.46-52.57-16.71-7.47-32-14.3-48.99-21.9ZM1152.38,43.4c4.03,19.28,29.69,44.61,49.77,44.61,4.58-13.66,8.97-26.73,13.16-39.21-8.3-7.86-15.93-15.08-24.05-22.77-12.53,5.6-25.42,11.36-38.88,17.37ZM567.46,617.27c-.88-26.96-1.69-52.1-2.52-77.56-12.4,5.64-24.31,11.06-36.99,16.83,2.04,18.54,4.3,37.33,11.97,55.7,8.77,1.6,17.35,3.17,27.54,5.03ZM489.9,1224.47c4.53,23.62,193.45,37.25,220.89,41.47.89-3.63,1.6-6.54,2.55-10.41-75.07-9.72-148.22-24.57-223.44-31.06ZM600.7,806.22c.97,15.94,188.93,26.42,211.07,26.42.36-2.6.69-4.97,1.15-8.31-67.55-7.06-146.61-1.37-212.22-18.11ZM539.27,1049.63c-2.28,5.01,157.7,37.02,180.81,32.85.43-2.36.9-4.97,1.49-8.24-61.2-8.26-121.44-16.4-182.29-24.61ZM1154.09,271.52c8.82,19.41,17.62,38.76,26.38,58.04,38.9-6.98,11.88-80.93-26.38-58.04ZM1128.45,136.45c10.83-11.92,48.37-42.87,40.52-60.67-3.73-.75-8.2-1.66-13.3-2.68-14.75,17.39-29.13,34.35-43.65,51.47,5.06,4.51,10.54,8.48,16.42,11.89ZM807.56,1102.66c5.13,37.2,37.39,16.45,34.01-10.9-4.98-40.22-26.39-13.16-34.01,10.9ZM888.27,1110.07c10.58,34.95,28.7,27.5,31.27-1.91,3.24-37.12-20.92-30.14-31.27,1.91ZM850.28,1104.46c-.94,36.02,36.23,23.21,31.58-9.32-4.53-31.61-33.61-18.17-31.58,9.32ZM583.29,893.73c42.18,11.09,117.5,27.31,160.22,20.26.36-2.42.67-4.48,1.1-7.33-22.61-3-155.01-29.66-161.32-12.94ZM855.45,1312.35c16.39-6.05,24.15-46.44,7-53.7-21.64-9.16-35.52,47.04-7,53.7ZM798.33,1282.14c10.78,32.98,26.97,24.42,29.98-2.99,4.05-36.91-29.22-28.47-29.98,2.99ZM737.04,1292.9c19.82-.12,24.08-48.69,5.8-51.97-23.87-4.29-31.07,52.12-5.8,51.97ZM778.92,1246.37c-23.73,1.13-26.05,61.06,4.27,51.34,11.2-3.59,18.08-51.58-4.27-51.34ZM900.36,1316.69c1.57-6.61,22.22-64.37-6.64-50.91-21.02,9.8-22.38,52.63,6.64,50.91ZM666.92,1153.96c-50.63-7.11-99.7-16.29-149.88-18.56,11.09,18.65,128.06,23.95,148.91,27.25.37-3.3.6-5.37.97-8.7ZM1176.32,95.31c-13.17,15.89-26.39,31.82-39.94,48.17,3.53,3.79,6.64,7.13,10.24,11,17.16-18.59,33.12-36.36,49.57-55.77-6.78-.23-13.4-1.36-19.87-3.4ZM1102.95,119.85c15.03-17.94,29.57-35.29,43.83-52.31-2.15-5.63-3.87-10.13-5.85-15.32-16.55,20.41-32.42,39.99-48.85,60.25,4.27,2.9,7.48,5.08,10.86,7.38ZM662.43,979.78c-34.25-5.86-67.42-10.1-100.53-13.83-2.75,13.07,88.52,20.35,99.59,21.97.34-2.92.57-4.98.94-8.14ZM884.41,922.38c-18.46-1.04-35.1-6.24-52.95-4.95v8.68c17.16,2.35,34.04,4.67,51.57,7.07.53-4.08.88-6.86,1.39-10.8ZM445.32,210.88c23.76,6.36,47.39,12.97,70.98,19.96.24-.93.49-1.87.73-2.8-20.51-15.51-43.79-20.55-71.71-17.15ZM791.96,995.38c-9.59-.97-41.81-11.52-41.81,4.83,13.91,1.86,26.8,3.58,39.91,5.33.72-3.86,1.24-6.63,1.9-10.15ZM367.17,234.29c-15.56.91-29.58,1.73-43.61,2.55-.14.76-.27,1.53-.41,2.29,20.04,5.87,34.63,17.11,44.02-4.84ZM926.89,1194.18c-12.57-6.71-19.03-4.25-19.38,7.4,6.38,1.06,11.14,1.85,16.32,2.71,1.22-4.03,2.12-6.99,3.07-10.11ZM997.34,854.21c.61-4.54,1.02-7.6,1.56-11.62h-20.23v8.87c6.03.89,11.65,1.72,18.68,2.76ZM926.66,1113.61c5.66,1.02,10.3,1.85,15.6,2.81,1.09-4.23,1.93-7.48,3.03-11.76-5.38-.67-9.52-1.18-14.12-1.75-1.46,3.46-2.67,6.34-4.51,10.7Z"/>
      <path class="cls-7" d="M354.17,1344.24c-.17,3.23-.34,6.45-.53,9.89,24.98,11.12,29.47,35.81,60.76,40.22,55.18,7.79,108.2-42.74,160.93-49.19,101.57-12.42,211.01,27.1,312.49,32.09,0,45.78-34.19,65.76,22.35,80.73-21.01,13.76-76.42,6.11-100.98,6.71-38.75.95-77.59.76-116.35.27-67.74-.85-135.38-6.19-202.76-12.93-62.85-6.29-125.65-13.52-187.52-26.56-40.62-8.56-157.53-24.82-169.08-76.5,42.41,10.08,86.04,23.64,129.25,29,42.35,5.25,57.8-8.61,89.62-35.34.6.53,1.21,1.06,1.81,1.59Z"/>
      <path class="cls-7" d="M962.97,1455.86c43.28-13.46,63.83-8.39,73.81-51.31,40.54,17.4,132.28,49.18,125.96-29.8,40.12,6.84,70.76,15.35,109.97-.38,34.33-13.77,59.4-39.83,90.84-57.21,63.65,14.12-17.52,68.63-33.56,75.74-41.38,18.35-86.99,27.7-131.15,36.29-39.87,7.76-79.75,13.55-120.06,18.26-31.62,3.69-86.44,20.1-115.82,8.4Z"/>
      <path class="cls-11" d="M1315.48,634.37c69.74-3.26,69.04,108.32.32,108.32-67.97,0-70.07-108.08-.32-108.32ZM1358.58,689.63c1.01-52.36-75.62-59.21-83.96-8.5-9.84,59.85,82.83,66.72,83.96,8.5Z"/>
      <path class="cls-11" d="M202.45,732.12c-65.95.39-71.85-99.01-7.56-107.52,72.42-9.58,80.79,107.08,7.56,107.52ZM158.76,677.21c-1.12,55.23,83.67,57.12,85.91,2.35,2.3-56.2-84.78-58.3-85.91-2.35Z"/>
      <path class="cls-11" d="M1367.19,1126.09c-18.19,12.91-25.12,20.13-34.67,40.19-2.97-.1-30.06-34.91-37.53-39.21,19.14-12.4,25.42-18.82,35.17-39.36,1.3,0,29.25,34.12,37.04,38.38ZM1330.84,1144.35c5.45-5.86,11.12-11.94,16.39-17.6-5.76-5.98-11.4-11.82-16.35-16.95-5.07,5.6-10.58,11.67-15.71,17.34,5.35,5.88,10.64,11.69,15.67,17.21Z"/>
      <path class="cls-11" d="M151.77,541.62c7.05-4.64,36.07-37.35,35.96-37.37,9.45,18.26,15.69,25.42,32.78,36.8-18.45,12.61-23.98,19.5-33.02,39.95-13.58-17.15-19.15-25.36-35.72-39.38ZM201.74,541.32c-5.27-5.86-10.27-11.41-14.76-16.39-5.38,5.81-10.75,11.61-15.96,17.25,5.23,5.51,10.59,11.17,15.56,16.4,4.88-5.55,9.89-11.26,15.17-17.26Z"/>
      <path class="cls-11" d="M1296.01,1022.09c9.09,17.55,14.47,24.25,30.8,35.22-16.04,10.5-22.37,17.45-32,34.06-7.77-17.29-12.43-23.06-28.02-33.82,12.67-13.32,20.82-17.88,29.22-35.46ZM1283.92,1056.95c3.86,4.46,7.63,8.81,11.55,13.34,4.37-4.62,8.71-9.21,13.04-13.79-4.88-4.41-9.12-8.25-13.29-12.02-3.45,3.81-7.1,7.84-11.3,12.48Z"/>
      <path class="cls-11" d="M217.74,940.21c-1.69,27.72-44.56,25.33-42.48-2.36,2.02-26.86,44.12-24.65,42.48,2.36ZM196.9,927.97c-26.06-.22-.82,22.9-.82,22.87-.01.29,26.57-22.65.82-22.87Z"/>
      <path class="cls-11" d="M291.28,757.33c.37,22.97-33.87,26.77-39.87,5.15-7.71-27.78,39.39-35.31,39.87-5.15ZM281.91,757.66c.77-25.52-22.31-.98-22.17-.98-.56-.03,21.4,26.43,22.17.98Z"/>
      <path class="cls-11" d="M1288.9,554.93c29.14.32,22.6,50.51-8.76,37.32-19.58-8.24-13.7-37.57,8.76-37.32ZM1288.61,563.79c-25.04-.96-.84,22.94-.83,22.53,0-.01,26.04-21.56.83-22.53Z"/>
      <path class="cls-11" d="M1433.41,1222.38c-3.09,3.18-6.04,3.28-8.82-.41,2.94.14,5.88.27,8.82.41Z"/>
      <path class="cls-17" d="M1187.73,458.03c10.92,118.26-21.06,258.49,17.82,371.34,18.02,52.3,47.18,100.56,21.25,155.84-24.15,51.5-79.25,76.47-131.03,91.07,3.42-35.5-1.13-68.43-31.85-91.3,27.5-16.67,74.69-52.64,74.9-88.91.21-35.82-26.05,22.95-28.68,27.72-.79-.25-1.57-.5-2.36-.75,5.21-37.47,13.05-75.01,16.69-112.64,3.08-31.81,5.29-30.61-22.46-49.53-17.46-11.9-49.66-28.41-71.89-17.93-23.21,10.94-22.49,64.54-29.18,90.06-5.35-.62-10-1.17-15.54-1.81-6.31-17-25.33-31.38-42.1-16.26-16.38-8.19-24.87-14.68-40.3-3.74-15.82-14-23.71-15-39.94-4.67-15.86-20.14-35.73-10.37-47.21,7.83-60.66-6-121.21-11.98-182.52-18.05,3.17-14.26,6.03-27.08,8.91-40.02-17.01-25.95-76.53-59.71-101.72-33.53-14.26,14.83-19.26,63.2-25.21,83.26-8.83,29.74-15.28,61.85-27.48,90.42-11.54-6.97-64.27-77.24-68.12-75.87-27.18,9.72,48.3,81.47,53.79,86.79-29.35,23.08-36.92,56.89-33.04,92.51-58.07-21.69-122.94-48.28-119.29-121.87,2.57-51.75,52.62-134.85,97.57-160.51,25.04,44.94,14.09-7.7.93-29.47-28.04-46.41-60.27-87.58-64.43-143.95,45.9,4.38,86.49-3.27,130.88-15.55,10.8,16.21,13.39,18.66,28.52,26.83,8.26,49.73,8.1,72.1,64.92,74.84,52.62,2.53,53.51-13.96,57.66-64.06,25.34,1.29,45.24-7.71,60.52-26.73,66.12,48.3,167.11,55.35,246.37,43.52,90.9-13.57,103.58-76.63,121.29-157.88,37.51,0,86.23,22.93,122.32,33Z"/>
      <path class="cls-4" d="M353.43,1063.45c-1.16,41.87,3.84,81.42,16.56,121.76-57.39-18.1-113.18-37.86-170.09-55.3-1.7,2.62-2.72,5.49-3.06,8.6,45.54,23.45,101.52,31.27,149.54,49.37,46.07,17.36,43.58,38.56,29.67,84.86-20.21,67.27-119.87,150.51-112.57,23.5-55.78,4.77-142.55,16.08-192.8-16.33,30.74-39.11,61.84-63.64,83.67-111.42,22.29-48.77,32.73-97.78,43.39-149.89,51.93,14.96,103.35,29.77,155.69,44.84ZM150.91,1234.72c-1.22,3.48-2.11,5.98-3.29,9.34,59.83,22.53,118.85,44.75,178.79,67.32,1.17-3.66,1.96-6.14,2.89-9.06-59.56-22.57-118.21-44.8-178.39-67.6ZM164.88,1213.55c59.8,22.14,118.88,44.01,178.53,66.09,1.4-3.19,2.34-5.35,3.76-8.57-59.68-22.38-118.66-44.49-178.29-66.84-1.22,2.83-2.29,5.33-4,9.32ZM365.3,1229.67c-33.11-11.65-64.82-22.82-96.84-34.08-2.94,2.71-3.77,5.79-2.51,9.24,31.68,11.14,63.42,22.3,95.82,33.69,1.21-3.04,2.1-5.24,3.54-8.84ZM187.2,1283.51c-19.27-7.77-37.09-14.95-55.42-22.35-1.41,3.04-2.41,5.18-3.81,8.19,18.72,7.91,36.75,15.53,55.52,23.46,1.18-2.95,2.17-5.44,3.71-9.31ZM182.94,1175.16c7.77,2.72,30.59,17.18,32.99,2.16-9.73-3.63-19.12-7.13-29.05-10.83-1.29,2.84-2.29,5.05-3.94,8.67ZM230.55,1190.45c11.9,6.2,12.28,6.11,14.4-3.48-3.87-1.01-7.78-2.03-11.84-3.09-1.06,2.74-1.69,4.35-2.55,6.57Z"/>
      <path class="cls-6" d="M660.35,87.36c139.03,7.49,265.87,46.74,390.94,106.15-67.43,65.05-198.21,48.95-278.61,29.7-105.64-25.29-208.15-61.38-314.42-84.59,20.32-3.84,202.25-41.36,202.09-51.25Z"/>
      <path class="cls-15" d="M851.04,258.66c37.98,4.04,79.45-2.47,101.04,32.87,15.58,25.51,16.05,58.95,8.53,86.91-16.25,60.46-73.67,99.91-136.21,94.93-63.1-5.02-112.22-55.57-116.23-118.64-6.12-96.16,69.48-91.83,142.88-96.06ZM784.29,387.37c.04,63.36,97.12,61.17,97.42-.21.3-62.91-97.46-62.75-97.42.21Z"/>
      <path class="cls-16" d="M1001.09,1086.44c-22.91,120.99-44.84,241.72-68.45,362.53-11.68-2.69-32.94-4.46-43.49-11.79,46.86-226.4,93.8-453.18,140.81-680.32h35.37c-10.22,67.54-22.03,136.98-37.97,203.44-11.64,48.53-79.91,76.2-26.27,126.14Z"/>
      <path class="cls-20" d="M1250.15,1330.89c-16.67-6.64-33.35-13.27-51.06-20.32.66-5.42,1.3-10.72,2.14-17.54-21.98-3-43.42-4.34-64.34-12.5,22.65-38.96,44.61-72.12,75.79-104.54,64.81,31.91,134.44,51.91,209.12,57.34-25.67,46.1-76.4,88.73-121.93,114.57-37.75,21.42-113.49,48.02-101.52-26.83,21.43,7.93,42.29,15.64,63.7,23.56,1.32-2.37,2.45-4.41,4.23-7.6-4.45-1.66-8.07-3.02-11.7-4.37-1.47-.59-2.94-1.18-4.42-1.78ZM1161.58,1264.93c13.25,7,131.45,62.15,136.13,51.94,1.46-3.18-125.75-70.58-136.13-51.94ZM1265.4,1234.87c-1.59,3.5-2.69,5.92-4.23,9.31,30.86,10.52,60.23,22.33,91.75,31.33.63-3.74,1.06-6.32,1.56-9.31-29.78-10.47-58.71-20.64-89.08-31.32ZM1245.53,1264.17c30.06,10.7,59.2,21.07,88.7,31.56,1.78-2.84,3.02-4.81,5.09-8.13-30.07-10.97-59.07-21.56-88.68-32.37-1.77,3.1-3.1,5.43-5.11,8.93Z"/>
      <path class="cls-8" d="M699.4,314.37c-12.07,95.47,52.11,184.92,156.57,170.65,45.75-6.25,86.98-37.52,107.26-78.97,24.38-49.84,5.45-83.08-4.65-131.44l.07-.08c72.58,7.57,60.65,89.02,53.2,141.56-10.55,74.36-33.69,106.96-112.2,113.91-53.73,4.76-136.28,6.85-176.79-35.21-38.79-40.27-39.93-130.17-27.07-180.48,1.2.03,2.4.05,3.6.08Z"/>
      <path class="cls-5" d="M1046.93,173.26c-147.13-65.45-288.2-98.22-449.08-104.32,40.86-70,149.49-46.64,215.41-35.45,83.73,14.21,161.76,41.1,238.14,77.7.01,13.04.54,26.11-.17,39.11-.42,7.71-2.8,15.31-4.3,22.97Z"/>
      <path class="cls-14" d="M348.64,262.97c-21.93,52.8-17.14,101.75,22.05,146.02-17.62,24.99-27.58,52.66-31.9,83.35-84-14.75-99.42-59.73-98.9-140.09.17-26.7-3.21-72.53,16.55-94.11,26.52-28.95,61.81-5.7,92.19,4.82Z"/>
      <path class="cls-4" d="M525.77,315.83c-1.12,52.89-.03,103.56-61.09,111.91-49.34,6.75-95.72-23.64-110.88-70.61-11.67-36.16-5.67-108.17,38.8-120.02,49.99-13.32,133.17,25.4,133.17,78.72ZM460.06,396.59c52.48.12,54.46-81.92,1.92-82.77-52.13-.85-54.75,82.65-1.92,82.77Z"/>
      <path class="cls-12" d="M1020.04,1424.26c-24.84,7.66-49.12,15.14-74.18,22.86,22.3-118.64,44.45-236.47,66.67-354.7,19.2,2.69,37.21,3.89,56.59,3.89-16.42,109.7-32.7,218.54-49.08,327.95Z"/>
      <path class="cls-17" d="M511.08,1302.51c4.42-18.47,8.75-36.62,13.39-56.02,62.08,9.87,123.87,19.7,185.26,29.47,11.14,29.98,19.51,34.11,45.11,21.94,10.46,12.95,23.13,16.82,36.7,5.89,19.18,11.99,22.23,15.89,40.57,5.43,10.67,13.63,23.66,17.67,39.28,6.08,6.77,7.84,14.22,14.28,26.45,13.72-2.05,10.79-3.92,20.68-6.02,31.74-69.08-4.4-136.4-21.39-205.54-26.02-55.06-3.69-127.49,1.22-175.21-32.23Z"/>
      <path class="cls-12" d="M512.93,1021.65c15.9-7.24,47.64-39.84,59.66-35.3-2.3,19.21-7.43,37.89-13.7,57.94-46.86-22.69-47.64,33.58-6.27,24.38-3.21,19.9-7.73,37.66-12,55.63-15.94,3.77-39.25-23.44-41.26,10.94-1.57,26.79,21.45,11.61,34.37,16.96-5.22,20.91-10.47,41.91-15.62,62.57-15.68,3.38-43.84-23.96-45.31,12.42-1.26,31.3,26.23,10.27,38.88,17.78-7.24,29.97-14.56,60.25-21.95,90.79-22.5,5.15-44.37,10.17-68.48,15.69,30.78-109.88,61.34-219.81,91.68-329.81Z"/>
      <path class="cls-8" d="M530.94,1217.95c5.19-21.95,10.13-42.83,15.36-64.94,39.59,6.65,78.54,13.2,118.1,19.85,7.33,24.8,17.69,34.57,43.49,24.22,15.03,14.09,19.94,14.76,39.05,5.39,15.69,14.25,21.14,15.16,37.93,6.94,16.67,8.94,21.45,9.97,39.9,5.89,17.31,9.95,21.5,9.99,40.96,5.27,15.27,15.26,34.1,13.37,44.41-6.59h11.86c-2.86,14.82-5.53,28.71-8.5,44.11-11-5.37-21.46-5.97-30.04.74-19.28-10.82-23.72-15.92-41.69-5.25-11.25-11.07-23.74-17.07-37.82-6.12-14.74-8.84-25.86-18.59-40.21-4.92-16.6-16.92-34.04-15.11-47.56,4.07-61.65-9.53-122.75-18.97-185.22-28.63Z"/>
      <path class="cls-8" d="M811.64,843.34c12,29.44,20.78,33.47,42.95,20.72,16.88,9.24,21.11,9.88,39.75,5.12,18.45,9.7,22.91,13.02,39.82,2.14,15.78,19.48,37.28,10.05,46.96-9.21,4.4.83,8.58,1.61,14.04,2.63-4.46,20.2-8.75,39.66-13.47,61.07-11.96-14.98-23.46-35.57-45.98-18.64-17.31-13.65-33.29-14.75-46.6,5.25-16.78,0-33.58-3.34-50.16-5.65-6.04-17.72-25.98-33.77-43.34-16.72-14.11-14.26-29.5-18.89-48.36,6.3-44.18-5.1-88.99-10.27-134.83-15.56,4.36-18.4,8.71-36.77,13.35-56.32,61.93,6.29,123.55,12.54,185.88,18.87Z"/>
      <path class="cls-8" d="M763.59,1115.23c15.1,14.38,19.55,15.04,39.91,6.15,11.04,11.94,23.95,15.69,37.61,5.98,17.27,9.74,24.28,16.14,40.97,5.43,14.14,6.19,14.84,12.33,32.05,10,10.69-1.44,11.32-22.61,25.49-16.32-2.12,18.47-7.51,36.56-10.98,56.02-4.41-.29-8.26-.55-12.65-.84-5.06-18.69-25.01-32.13-42.38-17.58-15.21-14.28-22.68-15.57-38.52-6.34-11.36-9.22-26.43-18.15-39.64-5.05-11.72-12.2-24.21-17.87-38.6-5.61-15.32-15.19-21.32-16.16-39.71-6.07-15.66-19.2-31.57-11.4-46.08,3.18-38.81-5.7-77.53-11.38-117.7-17.28,4.27-18.19,8.43-35.88,12.91-54.95,51.21,5.95,101.89,15.24,153.77,21.28,4.73,25.02,20.45,34.98,43.57,22Z"/>
      <path class="cls-8" d="M706.91,1021c13.9,17.26,31.71,13.46,45.23-10.36,12.23,1.38,24.84,2.81,37.23,4.21,7.23,28.52,21.4,35.72,41.84,22.95,16.19,8.6,25.2,15.74,40.67,3.9,11.19,14.15,24.27,18.07,39.65,6.66,15.93,13.13,30.37,14.39,45.48-1.47-3.81,17.13-7.13,32.04-10.57,47.48-4.16-.23-7.74-.42-11.06-.6-10.75-24.91-21.98-29.38-42.95-16.75-11.11-12.56-23.98-17.33-38.29-6.33-15-8.43-24.99-17.14-39.97-6.14-13.84-7.15-27.42-17.85-41.19-3.62-14.02-17.1-35.45-15.5-47.22,3.04-36.38,12.36-114.39-14.62-152.15-19.84,4.25-19.07,8.37-37.55,12.8-57.43,25.09,3.87,49.6,7.65,74.55,11.49,3.83,18.64,22.68,38.84,41.45,21.94,1.5.29,3.01.58,4.51.87Z"/>
      <path class="cls-16" d="M464.69,1019.39c11.68.94,22.55,1.81,34.89,2.8-30.13,110.47-60.2,220.45-91.67,330.67-13.3-2.69-25.74-5.2-39.5-7.98,31.02-108.95,65.32-216.34,96.28-325.49Z"/>
      <path class="cls-1" d="M1187.73,458.03c-36.09-10.07-84.81-33-122.32-33-17.7,81.25-30.39,144.31-121.29,157.88-79.27,11.83-180.25,4.78-246.37-43.52,1.92-3.49,3.85-6.98,6.07-11.01,69.41,42.76,170.53,47.03,248.88,28.11,89.09-21.51,85.17-96.11,101.88-172.16,43.77,17.74,87.03,35.27,130.92,53.06.75,6.98,1.49,13.81,2.23,20.64Z"/>
      <path class="cls-19" d="M486.01,161.36c-45.74,45.06-71.71,41.37-132.88,40.45-23.24-.35-119.01,23.67-119.33-25.09-.43-66.14,218.61-22.86,252.2-15.36Z"/>
      <path class="cls-8" d="M1189.84,1083.15c-5.28,77.98-34.12,179.76-107.3,220.88-4.23-2.46-2.21-6.37-2.01-9.68.26-4.21,1.12-8.38,1.72-12.57.83-9.67,1.56-19.34,2.51-29,1.3-13.17,2.76-26.33,4.15-39.5,3.6-24.04,2.38-69.93,18.14-86.48,15.41-16.18,62.06-28.79,82.78-43.66Z"/>
      <path class="cls-8" d="M837.14,936.73c8.84.9,17.68,1.79,26.52,2.69,1.5.31,2.99.61,4.49.92,5,.81,9.99,1.63,15.97,2.6,1.3,13.63,6.43,24.79,21.52,27.79,0,3.46,0,6.93,0,10.39-8.68-1.33-16.82-.26-22.65,4.95-14.38-7.82-26.83-18.04-41.48-3.9-14.25-16.92-34.59-14.14-46.23,4.05-12.9-1.75-25.57-3.48-38.81-5.28-6.49-19.57-24.93-30.91-43.57-17.25-14.21-14.98-28.59-17.33-47.65,5.47-23.07-2.95-46.63-5.96-71.59-9.16,3.94-17.42,7.69-34.04,11.69-51.72,46.18,3.73,91.56,12.1,137.87,16.44,6.5,21.63,21.01,37.41,43.78,20.97,19.58,17.45,34.96,11.18,47.98-8.9.72-.02,1.44-.04,2.16-.06Z"/>
      <path class="cls-8" d="M1194.97,388.2c-4.14-15.69-7.77-29.41-11.35-42.98,57.03-34.63,21.74-97.03-37.58-87.82-7.11-10.04-14.47-20.43-22.19-31.33,69.3-84.08,226.53,107.38,71.13,162.14Z"/>
      <path class="cls-8" d="M678.28,254.88c-23.71,19.57-20.17,50.6-23.88,78.85-32.46-7.03-57.92-8.95-91.07-6.89,3.45-48.88-3.12-93.34-52.93-116.54,13.78-11.66,168.24,36.47,167.88,44.58Z"/>
      <path class="cls-12" d="M1035.57,985.08c13.25-75.59,27.71-148.58,41.99-223.49,13.66,8.31,25.67,15.62,37.2,22.64-5.46,40.36-11.39,80.59-17.99,120.78-7.62,46.35-21.68,55.52-61.2,80.07Z"/>
      <path class="cls-1" d="M678.28,254.88c.37-8.11-154.09-56.24-167.88-44.58-12.28-4.37-24.56-8.75-37.36-13.31,34.15-45.11,74.14-23.09,120.54-9.53,38.09,11.13,114.57,19.49,144.5,45.05-20.4,6.6-41,12.14-59.81,22.36Z"/>
      <path class="cls-8" d="M1080.28,211.79c52.6,16.43,89.2,113.44,95.55,162.74-30.75-20.07-60.05-39.2-88.92-58.05,2.63-52.2-9.38-47.56-59.77-64.09,13.72-9.47,27.59-18.71,41.06-28.52,4.55-3.31,8.09-8.02,12.09-12.09Z"/>
      <path class="cls-9" d="M630.49,443.69c45.09,9.76,34.08,43.61,62.07,73.97-19.54,60.5-122.54,36.96-122.54-19.05,26.48-7.11,70.8-16.97,60.47-54.92Z"/>
      <path class="cls-20" d="M251.3,1308.76c-1.59,20.55.85,39.47,14.23,57.82-48.67-9.16-96.7-20.91-144.55-33.64-42.29-11.25-87.33-14.55-107.19-58.37,78.04,26.25,154.6,48.06,237.51,34.19Z"/>
      <path class="cls-5" d="M660.35,87.36c.16,9.9-181.77,47.41-202.09,51.25-47.09-5.8-92.79-7.42-139.75-10.69,45.73-27.83,128.13-27.98,180.28-33.94,51.96-5.94,109.43-11.96,161.56-6.62Z"/>
      <path class="cls-8" d="M441.52,1049.92c-13.53,49.99-23.75,104.99-44.97,152.27-29.31-53.98-29.74-117.28-22.95-176.58,23.14,7.14,44.08,19.21,67.92,24.31Z"/>
      <path class="cls-8" d="M506.38,429.63c-9.14,52.02-103.87,94.64-149.21,63.88.92-26.96,11.02-50.9,26.19-73.89,44.53,20.86,74.24,26.11,121.67,8.67.45.45.9.89,1.35,1.33Z"/>
      <path class="cls-12" d="M593.53,735.32c13.07,6.13,22.59,15.8,34.63,23.79-2.96,12.06-5.87,23.92-9.16,37.31-41.44-15.35-38.6,36.06-6.6,27.38-4.63,19.48-8.94,37.56-13.44,56.5-43.26-17.29-35.99,37.06-6.42,25.42-4.3,18.22-8.18,34.64-12.02,50.91-20.86,2.39-28.26-11.51-42.25-24.15,18.47-65.91,36.73-131.04,55.26-197.16Z"/>
      <path class="cls-9" d="M453.55,1003.09c-5.05-23.22-2.61-77.65,27.12-86.42,21.85-6.44,68.64,36.36,67.25,58.33-7.6-1.2-39.77-13.28-44.57-4.66-6.63,11.9,33.43,14.96,40.1,16.22-16.68,28.71-63.41,22.22-89.9,16.52Z"/>
      <path class="cls-16" d="M499.27,905.65c17.76-59.82,35.16-118.44,52.76-177.72,9.57.68,18.92,1.34,28.23,2,.32,8.21-45.67,175.49-53.31,193.76-9.18-5.98-18.18-11.84-27.68-18.03Z"/>
      <path class="cls-9" d="M1052.19,991.38c29.32,14.71,40.81,57.82,27.94,87.93-36.7,10.46-71.69,2.8-86.09-19.77,1.02-.16,45.92-3.56,40.91-13.18-5.32-10.21-38.8,1.85-41.95,2.5-20.81-19.73,54.51-54.72,59.19-57.48Z"/>
      <path class="cls-1" d="M1189.84,1083.15c-20.73,14.87-67.37,27.48-82.78,43.66-15.76,16.55-14.54,62.44-18.14,86.48-2.2-1.46-4.75-2.58-6.51-4.44-4.17-4.39-8.36-8.51-14.76-9.23,4.78-34.84,9.55-69.68,14.43-105.25,39.13-7.56,75.83-20.42,110.34-43.85-.97,12.39-1.77,22.51-2.57,32.64Z"/>
      <path class="cls-6" d="M1046.93,173.26c1.5-7.65,3.88-15.26,4.3-22.97.71-13,.18-26.07.17-39.11,36.61,17.46,89.69,39.98,92.63,85.97-9.97,4.47-19.53,8.76-29.7,13.32-22.16-12.24-44.78-24.73-67.39-37.22Z"/>
      <path class="cls-9" d="M1108.97,1331.68c24.82,14,55.6,45.14,32.1,74.26-10.16-15.72-20.6-30.15-39.15-36.58-1.65,2.88-2.85,4.98-4.49,7.85,12.3,10.37,26.92,18.41,32.08,35.3-25.84,15.06-68.47-11.65-91.24-21.89.64-2.83,1.16-5.15,1.68-7.47,15.25-5.1,70.41-32.3,69.03-51.47Z"/>
      <path class="cls-8" d="M654.74,400.73c1.52,12.92,3.04,25.84,4.49,38.17-35.61-7.07-77.96-14.93-111.37-24.6,2.29-8.24,4.59-16.53,6.89-24.81,48.35-20.51,57.85-.56,99.98,11.25Z"/>
      <path class="cls-20" d="M1103.93,1312.84c1.58-6.66,17.64-18.3,21.83-22.26,21.18,4.73,41.34,9.24,62.1,13.88-2.47,21.79-4.49,44.37,9.85,65.76-9.9-1.75-18.43-3.25-26.97-4.76-1.51-.46-3.01-.91-4.52-1.37-5.99-1.91-10.35-5.29-14.11-10.79-10.83-15.85-25.55-27.58-42.51-36.51-1.89-1.32-3.78-2.64-5.67-3.96Z"/>
      <path class="cls-9" d="M509.62,459.25c9.5,20.26,26.35,30.11,46.01,36.92,1.04,9.35,2.08,18.79,3.25,29.28-52.53,44.86-92.74-31.37-49.26-66.19Z"/>
      <path class="cls-20" d="M576.29,543.72c16.99,7.6,32.29,14.43,48.99,21.9-7.5,42.26-2.85,52.57-45.46,52.57-1.2-25.31-2.34-49.35-3.53-74.47Z"/>
      <path class="cls-1" d="M441.52,1049.92c-23.85-5.1-44.79-17.17-67.92-24.31,1.55-10.82,3.1-21.64,4.56-31.84,24.24,8.29,47.98,16.4,72.91,24.93-1.96,10.24-5.06,20.91-9.55,31.21Z"/>
      <path class="cls-9" d="M1152.38,43.4c13.45-6.01,26.35-11.77,38.88-17.37,8.12,7.69,15.75,14.91,24.05,22.77-4.19,12.48-8.57,25.55-13.16,39.21-20.08,0-45.74-25.33-49.77-44.61Z"/>
      <path class="cls-20" d="M567.46,617.27c-10.18-1.86-18.77-3.43-27.54-5.03-7.67-18.37-9.93-37.16-11.97-55.7,12.68-5.77,24.59-11.19,36.99-16.83.83,25.46,1.64,50.6,2.52,77.56Z"/>
      <path class="cls-18" d="M489.9,1224.47c75.22,6.49,148.37,21.34,223.44,31.06-.95,3.87-1.66,6.78-2.55,10.41-27.44-4.22-216.36-17.85-220.89-41.47Z"/>
      <path class="cls-16" d="M1108.97,1331.68c1.37,19.17-53.78,46.37-69.03,51.47,1.36-11.94,2.73-23.88,3.97-34.71,16.59-9.81,31.95-18.9,48.79-28.85,4.77,3.54,10.52,7.82,16.28,12.1Z"/>
      <path class="cls-1" d="M486.14,528.5c-44.39,12.28-84.98,19.93-130.88,15.55-.72-5.28-1.44-10.57-2.2-16.15,42.78.35,86.89,4.01,127.75-11.66,1.94,4.47,3.64,8.36,5.33,12.25Z"/>
      <path class="cls-9" d="M521.52,1350.48c-41.14,15.72-79.23,35.35-124.26,28.18,2.54-5.22,4.38-9.02,5.79-11.92,20.64-2.76,85.06-5.97,97.81-25.7,7.99.72,14.71,4.25,20.66,9.44Z"/>
      <path class="cls-18" d="M600.7,806.22c65.61,16.75,144.67,11.05,212.22,18.11-.46,3.34-.79,5.7-1.15,8.31-22.14,0-210.1-10.48-211.07-26.42Z"/>
      <path class="cls-1" d="M654.74,400.73c-42.14-11.81-51.63-31.75-99.98-11.25-5.3-51.5,83.42-19.63,99.58-6.84.12,5.19.26,11.64.41,18.09Z"/>
      <path class="cls-7" d="M1067.64,1199.62c6.4.73,10.6,4.84,14.76,9.23,1.77,1.86,4.32,2.98,6.51,4.44-1.39,13.17-2.85,26.32-4.15,39.5-.95,9.66-1.68,19.33-2.51,29-5.13.79-8.23-2.01-10.76-5.96-3.33-5.2-6.5-10.62-13.43-11.73,3.19-21.49,6.38-42.99,9.57-64.48Z"/>
      <path class="cls-18" d="M539.27,1049.63c60.85,8.22,121.1,16.35,182.29,24.61-.59,3.27-1.06,5.87-1.49,8.24-23.11,4.17-183.08-27.84-180.81-32.85Z"/>
      <path class="cls-13" d="M1154.09,271.52c38.26-22.89,65.28,51.06,26.38,58.04-8.76-19.28-17.56-38.62-26.38-58.04Z"/>
      <path class="cls-1" d="M1080.28,211.79c-4,4.07-7.53,8.78-12.09,12.09-13.47,9.8-27.35,19.05-41.06,28.52-13.01-3.35-26.02-6.7-41.91-10.79,30.08-9.69,56.07-22.32,81.76-38.14,4.19,2.62,8.74,5.47,13.29,8.32Z"/>
      <path class="cls-10" d="M1128.45,136.45c-5.89-3.41-11.36-7.38-16.42-11.89,14.52-17.12,28.9-34.07,43.65-51.47,5.1,1.03,9.57,1.93,13.3,2.68,7.84,17.8-29.69,48.76-40.52,60.67Z"/>
      <path class="cls-2" d="M807.56,1102.66c7.62-24.06,29.03-51.13,34.01-10.9,3.38,27.35-28.88,48.11-34.01,10.9Z"/>
      <path class="cls-2" d="M888.27,1110.07c10.35-32.05,34.52-39.03,31.27-1.91-2.57,29.42-20.7,36.86-31.27,1.91Z"/>
      <path class="cls-2" d="M760.06,1087.39c-.71,17.94-10.02,34.69-26.87,16.99-15.37-16.14,6.57-61.12,30.86-38.97-.5,3.49-.89,7-1.53,10.46-.71,3.86-1.63,7.68-2.46,11.52Z"/>
      <path class="cls-2" d="M850.28,1104.46c-2.03-27.49,27.05-40.92,31.58-9.32,4.66,32.53-32.52,45.34-31.58,9.32Z"/>
      <path class="cls-2" d="M775.41,1072.12c48.8-42.53,20.69,89.68-4.86,30.7-.08-.7-.17-1.4-.25-2.1.01-3.74.02-7.48.03-11.21.08-1.43.17-2.85.25-4.28.01-.75.02-1.49.04-2.24,1.6-3.62,3.2-7.25,4.8-10.87Z"/>
      <path class="cls-18" d="M583.29,893.73c6.31-16.72,138.71,9.94,161.32,12.94-.43,2.84-.73,4.9-1.1,7.33-42.73,7.05-118.04-9.18-160.22-20.26Z"/>
      <path class="cls-13" d="M855.45,1312.35c-28.52-6.65-14.64-62.85,7-53.7,17.15,7.25,9.39,47.64-7,53.7Z"/>
      <path class="cls-14" d="M905.65,981.12c0-3.46,0-6.93,0-10.39,6.89-1.81,13.78-3.61,22.39-5.87,15.9,15.56,33.48,9.8,46.6-6.12-3.06,16.06-6.11,32.12-9.55,50.21-10.11-15.97-23.61-32.73-43.38-16.07-5.55-4.06-10.8-7.91-16.05-11.76Z"/>
      <path class="cls-13" d="M798.33,1282.14c.76-31.46,34.03-39.9,29.98-2.99-3.01,27.4-19.2,35.97-29.98,2.99Z"/>
      <path class="cls-13" d="M737.04,1292.9c-25.27.15-18.07-56.26,5.8-51.97,18.28,3.29,14.03,51.86-5.8,51.97Z"/>
      <path class="cls-13" d="M778.92,1246.37c22.34-.24,15.46,47.75,4.27,51.34-30.32,9.73-28-50.21-4.27-51.34Z"/>
      <path class="cls-1" d="M1058.07,1264.1c6.92,1.1,10.09,6.53,13.43,11.73,2.53,3.95,5.63,6.75,10.76,5.96-.6,4.19-1.46,8.36-1.72,12.57-.2,3.31-2.22,7.21,2.01,9.68-9.13,9.71-21.11,14.98-33.9,22.52,1.07-19.7,2-44.16,9.43-62.45Z"/>
      <path class="cls-13" d="M900.36,1316.69c-29.03,1.72-27.66-41.11-6.64-50.91,28.86-13.45,8.22,44.3,6.64,50.91Z"/>
      <path class="cls-18" d="M666.92,1153.96c-.37,3.32-.6,5.4-.97,8.7-20.85-3.3-137.82-8.6-148.91-27.25,50.19,2.26,99.25,11.44,149.88,18.56Z"/>
      <path class="cls-12" d="M1176.32,95.31c6.47,2.03,13.09,3.17,19.87,3.4-16.45,19.41-32.41,37.18-49.57,55.77-3.6-3.87-6.71-7.2-10.24-11,13.55-16.35,26.77-32.28,39.94-48.17Z"/>
      <path class="cls-20" d="M938.36,959.58c-25.58-35.95,39.56-75.29,22.88-13.6-7.08,1.12-14.16,2.24-21.28,3.36.11,3.29,3.44,7.39-1.6,10.24Z"/>
      <path class="cls-20" d="M919.16,1034.29c-10.2-32.89,38.65-61.78,28.43.09-9.48-.03-18.95-.06-28.43-.09Z"/>
      <path class="cls-20" d="M672.46,1002.2c-7.72-38.24,38.22-59.15,27.29-3.31-9.1,1.1-18.2,2.21-27.29,3.31Z"/>
      <path class="cls-20" d="M793.09,1191.18c-6.09-33.51,39.41-54.88,27.7,1.99-9.36,1.05-18.84,3.88-27.7-1.99Z"/>
      <path class="cls-10" d="M1102.95,119.85c-3.38-2.3-6.59-4.48-10.86-7.38,16.43-20.26,32.3-39.84,48.85-60.25,1.98,5.18,3.7,9.69,5.85,15.32-14.26,17.02-28.8,34.37-43.83,52.31Z"/>
      <path class="cls-20" d="M715.05,1179.85c-2.28-15.26,18.82-55.98,32.48-25.78-1.88,10.46-3.47,19.36-5.07,28.27-9.45,2.57-18.57,1.61-27.41-2.49Z"/>
      <path class="cls-20" d="M894.44,943.8c-2.75-15.46,19.76-59.48,32.26-29.47-1.68,10.58-3.15,19.88-4.62,29.17-9.21.1-18.43.2-27.64.3Z"/>
      <path class="cls-20" d="M863.12,830.35c4.52-34.04,32.64-17.29,26.71,18.38-8.66.48-17.27,2.85-26.01.73-.29-.07-.67.22-1.01.35l-.09-.24c.13-6.4.26-12.81.39-19.21Z"/>
      <path class="cls-20" d="M832.17,1195.31c-3.81-19.23,17.56-47.56,33.48-23.41-1.87,8.54-3.75,17.07-5.63,25.61-9.72,4.86-18.95,3.43-27.85-2.2Z"/>
      <path class="cls-20" d="M711.24,1005.68c-6.63-35.53,38.88-56.98,28.51-2.3-9.5.77-19.01,1.54-28.51,2.3Z"/>
      <path class="cls-20" d="M940.34,852.94c-5.69-32.37,37.2-52.46,28.66,2.33-9.79,2.13-19.42,2.23-28.66-2.33Z"/>
      <path class="cls-20" d="M676.12,1175.69c-6.3-33.46,40.62-57.57,27.91-2.33-8.28,4-16.66,6.84-25.75,2.42-.6-.29-1.44-.07-2.16-.09Z"/>
      <path class="cls-20" d="M879.5,1025.43c-4.39-34.41,36.96-51.5,27.93,2.19q-14.67,2.93-27.93-2.19Z"/>
      <path class="cls-20" d="M753.78,1184.42c5.85-40.08,37.18-43.39,27.71,4.43-9.61.84-19.02.46-27.71-4.43Z"/>
      <path class="cls-20" d="M822.72,839.75c-2.06-13.83,6.09-40.57,25.03-33.46,13.75,5.16,3.42,25.89,2.81,35.9-9.8,5.21-18.78.98-27.84-2.43Z"/>
      <path class="cls-20" d="M754.3,923.67c-7.29-29.53,38.88-54.15,27.71,2.49-9.24-.83-18.47-1.66-27.71-2.49Z"/>
      <path class="cls-20" d="M901.65,850.91c-2.78-16.08,14.74-56.3,31.89-26.51-1.65,9.26-3.18,17.81-4.71,26.36-8.69,2.38-17.38,3-26.11.17-.33-.11-.71-.02-1.07-.02Z"/>
      <path class="cls-20" d="M840.18,1018.7c-5.06-33.84,39.17-50.91,27.1,2.2-9.49,4.85-18.38,2.33-27.1-2.2Z"/>
      <path class="cls-20" d="M800.52,1016.47c-5.85-33.87,41.64-48.9,29.99-13.11-.59.76-1.18,1.53-1.77,2.29-.07,3.71-.14,7.42-.21,11.14-9.34-.11-18.68-.21-28.01-.32Z"/>
      <path class="cls-20" d="M793.59,928.19c-5.67-33.37,38.55-52.57,28.19.16-2.51.15-5.35-.4-7.46.59-7.17,3.39-13.91,1.8-20.73-.75Z"/>
      <path class="cls-20" d="M871.55,1205.07c1.69-39.3,37.96-48.73,27.38-2.84-9.13.95-18.25,1.9-27.38,2.84Z"/>
      <path class="cls-18" d="M662.43,979.78c-.36,3.16-.6,5.22-.94,8.14-11.07-1.62-102.34-8.91-99.59-21.97,33.11,3.73,66.28,7.97,100.53,13.83Z"/>
      <path class="cls-16" d="M521.52,1350.48c-5.95-5.19-12.66-8.72-20.66-9.44,1.55-6.3,3.1-12.61,4.75-19.32,16.47,5.58,31.94,10.81,48.84,16.54-11.33,5.1-21.66,9.83-32.93,12.22Z"/>
      <path class="cls-18" d="M884.41,922.38c-.51,3.94-.86,6.72-1.39,10.8-17.52-2.4-34.4-4.72-51.57-7.07v-8.68c17.85-1.29,34.49,3.91,52.95,4.95Z"/>
      <path class="cls-18" d="M445.32,210.88c27.92-3.4,51.2,1.64,71.71,17.15-.24.93-.49,1.87-.73,2.8-23.59-6.98-47.21-13.6-70.98-19.96Z"/>
      <path class="cls-18" d="M793.59,928.19c6.82,2.55,13.56,4.14,20.73.75,2.11-1,4.96-.44,7.46-.59,7.09,21.65-23.32,23.86-28.19-.16Z"/>
      <path class="cls-18" d="M871.55,1205.07c9.13-.95,18.25-1.9,27.38-2.84,7.36,22.12-22.42,25.08-27.38,2.84Z"/>
      <path class="cls-18" d="M822.72,839.75c9.05,3.41,18.03,7.64,27.84,2.43,6.17,24.25-22.78,19.85-27.84-2.43Z"/>
      <path class="cls-18" d="M791.96,995.38c-.66,3.52-1.17,6.29-1.9,10.15-13.11-1.75-26-3.47-39.91-5.33,0-16.35,32.21-5.79,41.81-4.83Z"/>
      <path class="cls-18" d="M832.17,1195.31c8.9,5.62,18.13,7.05,27.85,2.2,4.63,24.66-26.6,21.73-27.85-2.2Z"/>
      <path class="cls-18" d="M894.44,943.8c9.21-.1,18.43-.2,27.64-.3,3.95,23.7-22.35,18.96-27.64.3Z"/>
      <path class="cls-18" d="M940.34,852.94c9.25,4.56,18.87,4.46,28.66,2.33,4.48,25.22-33.87,20.25-28.66-2.33Z"/>
      <path class="cls-18" d="M715.05,1179.85c8.84,4.1,17.96,5.06,27.41,2.49,5.46,22.32-32.05,18.46-27.41-2.49Z"/>
      <path class="cls-18" d="M840.18,1018.7c8.73,4.53,17.62,7.05,27.1,2.2,7.04,22.13-25.33,22.39-27.1-2.2Z"/>
      <path class="cls-18" d="M800.52,1016.47c9.34.11,18.68.21,28.01.32,1.94,24.39-23.19,17.99-28.01-.32Z"/>
      <path class="cls-18" d="M879.5,1025.43q13.26,5.12,27.93,2.19c2.26,24.09-26.87,19.84-27.93-2.19Z"/>
      <path class="cls-18" d="M901.65,850.91c.36,0,.75-.09,1.07.02,8.72,2.83,17.42,2.21,26.11-.17,4.03,23.51-24.16,21.34-27.18.15Z"/>
      <path class="cls-18" d="M711.24,1005.68c9.5-.77,19.01-1.54,28.51-2.3,5.69,22.55-31.46,21.95-28.51,2.3Z"/>
      <path class="cls-18" d="M754.3,923.67c9.24.83,18.47,1.66,27.71,2.49,2.29,24.11-24.39,16.98-27.71-2.49Z"/>
      <path class="cls-18" d="M676.12,1175.69c.73.02,1.57-.2,2.16.09,9.09,4.41,17.47,1.58,25.75-2.42,3.51,23.77-22.05,23.53-27.91,2.33Z"/>
      <path class="cls-18" d="M793.09,1191.18c8.86,5.86,18.34,3.04,27.7,1.99,2.98,23.75-24.45,18.2-27.7-1.99Z"/>
      <path class="cls-18" d="M753.78,1184.42c8.69,4.89,18.1,5.27,27.71,4.43,1.76,24.93-24.85,15.38-27.71-4.43Z"/>
      <path class="cls-19" d="M367.17,234.29c-9.38,21.96-23.97,10.71-44.02,4.84.14-.76.27-1.53.41-2.29,14.02-.82,28.04-1.64,43.61-2.55Z"/>
      <path class="cls-18" d="M919.16,1034.29c9.48.03,18.95.06,28.43.09,8.27,14.11-31.88,23.2-28.43-.09Z"/>
      <path class="cls-18" d="M938.36,959.58c5.04-2.85,1.71-6.95,1.6-10.24,7.13-1.13,14.2-2.24,21.28-3.36,2.69,8.68,1.2,13.86-4.99,17.43-6.39,3.68-11.24,2.64-17.89-3.83Z"/>
      <path class="cls-18" d="M672.46,1002.2c9.1-1.1,18.2-2.21,27.29-3.31,3.3,21.57-22.55,21.85-27.29,3.31Z"/>
      <path class="cls-18" d="M862.81,849.81c.34-.12.72-.42,1.01-.35,8.74,2.12,17.35-.25,26.01-.73,4.33,19.9-27.85,20.28-27.02,1.07Z"/>
      <path class="cls-18" d="M926.89,1194.18c-.95,3.13-1.85,6.09-3.07,10.11-5.18-.86-9.94-1.65-16.32-2.71.35-11.65,6.81-14.12,19.38-7.4Z"/>
      <path class="cls-18" d="M997.34,854.21c-7.03-1.04-12.65-1.87-18.68-2.76v-8.87h20.23c-.54,4.02-.95,7.08-1.56,11.62Z"/>
      <path class="cls-18" d="M926.66,1113.61c1.84-4.37,3.05-7.24,4.51-10.7,4.6.57,8.74,1.08,14.12,1.75-1.1,4.28-1.94,7.53-3.03,11.76-5.31-.96-9.94-1.79-15.6-2.81Z"/>
      <path class="cls-11" d="M775.41,1072.12c-1.6,3.62-3.2,7.25-4.8,10.87-3.52,1.47-7.04,2.94-10.55,4.4.83-3.84,1.75-7.66,2.46-11.52.63-3.46,1.03-6.97,1.53-10.46,5.81-1.19,8.15,3.49,11.37,6.71Z"/>
      <path class="cls-1" d="M699.4,314.37c-1.2-.03-2.4-.05-3.6-.08,1.12-9.26,2.37-18.46,11.12-24.21l-.15-.16c-2.46,8.15-4.91,16.3-7.37,24.45Z"/>
      <path class="cls-18" d="M863.12,830.35c-.13,6.4-.26,12.81-.39,19.21-6.14-2.24-2.67-7.51-3.35-11.36-.53-3.04-.79-6.82,3.74-7.85Z"/>
      <path class="cls-11" d="M1103.93,1312.84c1.89,1.32,3.78,2.64,5.67,3.96-1.67.08-3.46.59-4.98.15-2.46-.71-3.15-2.29-.69-4.11Z"/>
      <path class="cls-11" d="M868.15,940.33c-1.5-.31-2.99-.61-4.49-.92,2.27-3.5,3.62-2.48,4.49.92Z"/>
      <path class="cls-11" d="M706.91,1021c-1.5-.29-3.01-.58-4.51-.87.72-1,1.43-2,2.15-3.01.79,1.29,1.57,2.58,2.36,3.87Z"/>
      <path class="cls-11" d="M1250.15,1330.89c1.47.59,2.94,1.18,4.42,1.78-3.32,4.01-3.93,1.26-4.42-1.78Z"/>
      <path class="cls-11" d="M1166.22,1364.1c1.51.46,3.01.91,4.52,1.37-.97.71-1.94,1.41-2.9,2.12-.54-1.16-1.08-2.32-1.62-3.48Z"/>
      <path class="cls-11" d="M770.58,1085.23c-.08,1.43-.17,2.85-.25,4.28-2.22-1.56-2.04-2.98.25-4.28Z"/>
      <path class="cls-7" d="M352.35,1342.64c.71-1.1,1.42-2.21,2.13-3.31.45.21.91.42,1.36.63l-1.68,4.28c-.6-.53-1.21-1.06-1.81-1.59Z"/>
      <path class="cls-11" d="M837.14,936.73c-.72.02-1.44.04-2.16.06.72-.02,1.44-.04,2.16-.06Z"/>
      <path class="cls-11" d="M770.3,1100.72c.08.7.17,1.4.25,2.1-.08-.7-.17-1.4-.25-2.1Z"/>
      <path class="cls-8" d="M505.03,428.3c.75-.28,1.5-.55,2.24-.83-.3.72-.6,1.44-.89,2.16-.45-.44-.9-.88-1.35-1.33Z"/>
      <path class="cls-8" d="M958.59,274.6c-.53-.19-1.06-.39-1.58-.58.55.16,1.11.33,1.66.49l-.07.08Z"/>
      <path class="cls-11" d="M828.74,1005.65c.59-.76,1.18-1.53,1.77-2.29-.59.76-1.18,1.53-1.77,2.29Z"/>
      <path class="cls-1" d="M706.92,290.08c.31-.58.61-1.16.92-1.74-.36.52-.71,1.05-1.07,1.58l.15.16Z"/>
      <path class="cls-10" d="M1358.58,689.63c-1.12,58.23-93.8,51.36-83.96-8.5,8.34-50.71,84.97-43.86,83.96,8.5ZM1294.39,694.01c-6.75,4.29,1.92,21.96,6.17,25.32,17.93-6.02,35.56-14.04,21.62-35.32,2.18-4.04,4.17-7.71,6.37-11.77,2.61,2.74,4.53,4.76,7.71,8.1,2.28-1.87,4.05-3.32,6.03-4.94-6.35-6.25-10.99-10.49-8.21-17.92-25.9-3.85-29.02,15.08-24.51,34.5-1.28,1.76-3.95,5.45-6.88,9.48-3.21-2.88-5.59-5.02-8.3-7.45Z"/>
      <path class="cls-10" d="M158.76,677.21c1.13-55.94,88.21-53.85,85.91,2.35-2.24,54.77-87.03,52.87-85.91-2.35ZM225.86,704.39c-4.46-20.38,4.36-34.2-23.78-34.2-2.24-3.62-4.42-7.14-6.8-10.99,3.62-1.99,5.99-3.29,10.21-5.6-8.53-4.55-14.54-2.01-23.22-6.35-2.65,18.24-4.67,35.59,19.38,35.59,2.82,3.91,5.67,7.86,8.51,11.81-4.19,3.06-10.65.29-10.95,7.73,6.56,3,20.4,4.97,26.66,2.01Z"/>
      <path class="cls-20" d="M1330.84,1144.35c-5.03-5.53-10.31-11.33-15.67-17.21,5.13-5.67,10.64-11.74,15.71-17.34,4.94,5.13,10.58,10.97,16.35,16.95-5.27,5.66-10.94,11.74-16.39,17.6Z"/>
      <path class="cls-20" d="M201.74,541.32c-5.27,6-10.29,11.71-15.17,17.26-4.96-5.23-10.33-10.89-15.56-16.4,5.22-5.64,10.59-11.44,15.96-17.25,4.49,4.98,9.48,10.53,14.76,16.39Z"/>
      <path class="cls-20" d="M1283.92,1056.95c4.2-4.64,7.85-8.67,11.3-12.48,4.17,3.77,8.41,7.61,13.29,12.02-4.33,4.58-8.67,9.17-13.04,13.79-3.92-4.53-7.69-8.88-11.55-13.34Z"/>
      <path class="cls-20" d="M196.9,927.97c25.74.22-.83,23.16-.82,22.87,0,.03-25.23-23.09.82-22.87Z"/>
      <path class="cls-20" d="M281.91,757.66c-.77,25.45-22.73-1-22.17-.98-.15,0,22.94-24.54,22.17.98Z"/>
      <path class="cls-20" d="M1288.61,563.79c25.21.97-.83,22.51-.83,22.53-.01.42-24.21-23.49.83-22.53Z"/>
      <path class="cls-11" d="M150.91,1234.72c60.17,22.8,118.82,45.03,178.39,67.6-.93,2.92-1.72,5.4-2.89,9.06-59.94-22.57-118.95-44.79-178.79-67.32,1.18-3.36,2.06-5.86,3.29-9.34Z"/>
      <path class="cls-11" d="M164.88,1213.55c1.71-3.99,2.78-6.49,4-9.32,59.62,22.35,118.6,44.47,178.29,66.84-1.41,3.23-2.36,5.38-3.76,8.57-59.65-22.08-118.73-43.95-178.53-66.09Z"/>
      <path class="cls-11" d="M365.3,1229.67c-1.44,3.6-2.32,5.81-3.54,8.84-32.39-11.39-64.14-22.55-95.82-33.69-1.26-3.45-.43-6.53,2.51-9.24,32.02,11.27,63.73,22.43,96.84,34.08Z"/>
      <path class="cls-11" d="M187.2,1283.51c-1.54,3.86-2.54,6.36-3.71,9.31-18.76-7.93-36.79-15.55-55.52-23.46,1.4-3.01,2.39-5.15,3.81-8.19,18.33,7.39,36.15,14.58,55.42,22.35Z"/>
      <path class="cls-11" d="M182.94,1175.16c1.65-3.63,2.65-5.83,3.94-8.67,9.94,3.71,19.32,7.2,29.05,10.83-2.4,15.02-25.22.56-32.99-2.16Z"/>
      <path class="cls-11" d="M230.55,1190.45c.86-2.22,1.49-3.84,2.55-6.57,4.06,1.06,7.97,2.08,11.84,3.09-2.11,9.59-2.5,9.68-14.4,3.48Z"/>
      <path class="cls-3" d="M784.29,387.37c-.04-62.96,97.72-63.13,97.42-.21-.3,61.38-97.38,63.57-97.42.21Z"/>
      <path class="cls-11" d="M1161.58,1264.93c10.38-18.64,137.58,48.76,136.13,51.94-4.67,10.21-122.88-44.94-136.13-51.94Z"/>
      <path class="cls-11" d="M1265.4,1234.87c30.37,10.68,59.3,20.85,89.08,31.32-.5,2.99-.94,5.57-1.56,9.31-31.52-9-60.89-20.8-91.75-31.33,1.54-3.39,2.64-5.82,4.23-9.31Z"/>
      <path class="cls-11" d="M1245.53,1264.17c2.01-3.51,3.34-5.83,5.11-8.93,29.61,10.81,58.61,21.39,88.68,32.37-2.08,3.32-3.31,5.29-5.09,8.13-29.49-10.5-58.63-20.87-88.7-31.56Z"/>
      <path class="cls-3" d="M460.06,396.59c-52.83-.12-50.21-83.62,1.92-82.77,52.54.85,50.56,82.9-1.92,82.77Z"/>
      <path class="cls-11" d="M1294.39,694.01c2.7,2.43,5.09,4.57,8.3,7.45,2.93-4.03,5.6-7.72,6.88-9.48-4.51-19.42-1.39-38.34,24.51-34.5-2.78,7.42,1.86,11.67,8.21,17.92-1.98,1.62-3.75,3.07-6.03,4.94-3.17-3.34-5.1-5.36-7.71-8.1-2.19,4.06-4.18,7.73-6.37,11.77,13.93,21.28-3.69,29.3-21.62,35.32-4.24-3.37-12.91-21.04-6.17-25.32Z"/>
      <path class="cls-11" d="M225.86,704.39c-6.26,2.96-20.1.99-26.66-2.01.3-7.44,6.76-4.67,10.95-7.73-2.84-3.95-5.69-7.9-8.51-11.81-24.04,0-22.02-17.35-19.38-35.59,8.68,4.34,14.69,1.81,23.22,6.35-4.22,2.32-6.59,3.62-10.21,5.6,2.38,3.85,4.56,7.37,6.8,10.99,28.14,0,19.32,13.82,23.78,34.2Z"/>
    </g>
  </g>
</svg>